<svg xmlns="http://www.w3.org/2000/svg" fill="none" viewBox="0 0 170 48">
  <path fill="#fff" d="M62.546 28.666a10.108 10.108 0 0 0 9.98-8.558c.78-4.966-3.101-9.301-8.599-9.301h-8.86a.688.688 0 0 0-.689.585l-3.95 25.066a.643.643 0 0 0 .635.742h4.688a.69.69 0 0 0 .689-.585l1.16-7.363a.69.69 0 0 1 .69-.586h4.256Zm3.923-8.784c-.29 1.836-1.708 3.188-4.424 3.188h-3.473l1.052-6.678h3.41c2.81.006 3.723 1.663 3.435 3.495v-.005Zm26.371-1.18h-4.45a.688.688 0 0 0-.69.586l-.144.923s-3.457-3.774-9.573-1.225c-3.508 1.46-5.193 4.478-5.908 6.688 0 0-2.277 6.718 2.868 10.415 0 0 4.771 3.555 10.143-.22l-.093.589a.643.643 0 0 0 .634.742h4.45a.69.69 0 0 0 .69-.585l2.707-17.17a.64.64 0 0 0-.365-.684.642.642 0 0 0-.269-.059Zm-6.545 9.49a4.995 4.995 0 0 1-4.995 4.275 4.515 4.515 0 0 1-1.397-.205c-1.918-.616-3.014-2.461-2.699-4.46a4.995 4.995 0 0 1 5.013-4.277 4.53 4.53 0 0 1 1.398.206c1.912.613 3 2.46 2.685 4.461h-.005Zm40.347.474a10.109 10.109 0 0 0 9.99-8.558c.779-4.966-3.1-9.301-8.6-9.301h-8.858a.69.69 0 0 0-.689.585l-3.962 25.073a.653.653 0 0 0 .147.517.642.642 0 0 0 .487.225h4.69a.688.688 0 0 0 .689-.585l1.163-7.363a.688.688 0 0 1 .689-.586l4.254-.007Zm3.924-8.784c-.29 1.836-1.709 3.188-4.425 3.188h-3.472l1.054-6.678h3.41c2.808.006 3.722 1.663 3.433 3.495v-.005Zm26.371-1.18h-4.447a.69.69 0 0 0-.689.586l-.146.923s-3.455-3.774-9.571-1.225c-3.509 1.46-5.193 4.478-5.91 6.688 0 0-2.275 6.718 2.87 10.415 0 0 4.771 3.555 10.143-.22l-.093.589a.637.637 0 0 0 .365.683c.084.04.176.06.269.06h4.45a.688.688 0 0 0 .689-.586l2.708-17.17a.656.656 0 0 0-.147-.519.645.645 0 0 0-.491-.224Zm-6.545 9.49a4.983 4.983 0 0 1-4.995 4.275 4.511 4.511 0 0 1-1.398-.205c-1.921-.616-3.016-2.461-2.701-4.46a4.994 4.994 0 0 1 4.995-4.277 4.52 4.52 0 0 1 1.399.206c1.932.613 3.022 2.46 2.706 4.461h-.006Zm-41.213-9.065-5.365 9.056-2.723-8.989a.69.69 0 0 0-.663-.492h-4.842a.517.517 0 0 0-.496.689l4.88 15.143-4.413 7.136a.517.517 0 0 0 .443.794h5.215a.862.862 0 0 0 .741-.419L115.585 19.5a.516.516 0 0 0-.446-.789h-5.214a.86.86 0 0 0-.746.417Zm52.765-7.741-3.962 25.072a.653.653 0 0 0 .146.517.644.644 0 0 0 .488.225h4.689a.69.69 0 0 0 .689-.585l3.961-25.073a.652.652 0 0 0-.146-.517.64.64 0 0 0-.488-.225h-4.688a.689.689 0 0 0-.689.585Z"/>
  <path fill="#fff" fill-opacity=".45" d="M10.705 37.408H3a1.035 1.035 0 0 1-1.018-1.192L7.178 3.28A1.27 1.27 0 0 1 8.43 2.21h13.239c6.269 0 10.83 4.558 10.722 10.084 3.708 1.935 5.871 5.867 5.196 10.172a12.457 12.457 0 0 1-12.3 10.544h-3.898a1.266 1.266 0 0 0-1.253 1.072l-1.745 11.057a1.267 1.267 0 0 1-1.252 1.071h-6.62A1.034 1.034 0 0 1 9.5 45.02l1.206-7.61v-.001Z"/>
  <path fill="#fff" fill-opacity=".45" d="M32.391 12.293a11.59 11.59 0 0 0-5.401-1.285H15.952A1.268 1.268 0 0 0 14.7 12.08l-2.083 13.197.006-.035a1.27 1.27 0 0 1 1.247-1.034h6.1a12.462 12.462 0 0 0 12.3-10.544c.071-.453.112-.913.121-1.371Z"/>
  <path fill="#fff" d="M10.71 37.408H3a1.035 1.035 0 0 1-1.018-1.192L7.178 3.28A1.27 1.27 0 0 1 8.43 2.21h13.239c6.269 0 10.83 4.558 10.722 10.084a11.59 11.59 0 0 0-5.401-1.285H15.952A1.268 1.268 0 0 0 14.7 12.08l-2.083 13.197a.988.988 0 0 1 .006-.035L10.71 37.408Z"/>
</svg>
